<?xml version="1.0" encoding="UTF-8" standalone="no"?>
<svg viewBox="0 0 3015.4858 2916.4095" version="1.1" id="svg2" sodipodi:docname="Roblox (2007) (Icon).svg" xml:space="preserve" width="3015.4858" height="2916.4094" inkscape:version="1.4 (86a8ad7, 2024-10-11)" xmlns:inkscape="http://www.inkscape.org/namespaces/inkscape" xmlns:sodipodi="http://sodipodi.sourceforge.net/DTD/sodipodi-0.dtd" xmlns:xlink="http://www.w3.org/1999/xlink" xmlns="http://www.w3.org/2000/svg" xmlns:svg="http://www.w3.org/2000/svg"><sodipodi:namedview id="namedview2" pagecolor="#ffffff" bordercolor="#000000" borderopacity="0.25" inkscape:showpageshadow="2" inkscape:pageopacity="0.0" inkscape:pagecheckerboard="0" inkscape:deskcolor="#d1d1d1" inkscape:zoom="0.18961672" inkscape:cx="1505.6689" inkscape:cy="1458.2048" inkscape:window-width="1366" inkscape:window-height="705" inkscape:window-x="-8" inkscape:window-y="-8" inkscape:window-maximized="1" inkscape:current-layer="svg2"/><defs id="defs1"><inkscape:path-effect effect="fillet_chamfer" id="path-effect11" is_visible="true" lpeversion="1" nodesatellites_param="F,0,0,1,0,0,0,1 @ F,0,0,1,0,0,0,1 @ F,0,0,1,0,0,0,1 @ F,0,0,1,0,0,0,1 @ F,0,0,1,0,0,0,1 @ F,0,0,1,0,0,0,1 @ F,0,0,1,0,0,0,1 @ F,0,0,1,0,0,0,1 @ F,0,0,1,0,0,0,1 @ F,0,0,1,0,0,0,1 @ F,0,0,1,0,0,0,1 @ F,0,0,1,0,0,0,1 @ F,0,0,1,0,0,0,1 @ F,0,0,1,0,0,0,1 @ F,0,0,1,0,0,0,1 @ F,0,0,1,0,0,0,1 @ F,0,0,1,0,0,0,1 @ F,0,0,1,0,0,0,1 @ F,0,0,1,0,2.4464442,0,1 @ F,0,0,1,0,0,0,1 @ F,0,0,1,0,0,0,1 @ F,0,0,1,0,0,0,1 @ F,0,0,1,0,0,0,1 | F,0,0,1,0,0,0,1 @ F,0,0,1,0,0,0,1 @ F,0,0,1,0,0,0,1 @ F,0,0,1,0,0,0,1 @ F,0,0,1,0,0,0,1 @ F,0,0,1,0,0,0,1 @ F,0,0,1,0,0,0,1 @ F,0,0,1,0,0,0,1 @ F,0,0,1,0,0,0,1" radius="0" unit="px" method="auto" mode="F" chamfer_steps="1" flexible="false" use_knot_distance="true" apply_no_radius="true" apply_with_radius="true" only_selected="false" hide_knots="false"/><style id="style1">.a{fill:#f60000;}.b{fill:#fff;}</style><linearGradient id="linearGradient1044"><stop style="stop-color:#e0fefd;stop-opacity:1" offset="0" id="stop1040"/><stop style="stop-color:#82c1e7;stop-opacity:1" offset="1" id="stop1042"/></linearGradient><linearGradient xlink:href="#linearGradient1044" id="linearGradient1046" x1="371.73615" y1="466.27945" x2="371.73615" y2="545.72253" gradientUnits="userSpaceOnUse"/><clipPath clipPathUnits="userSpaceOnUse" id="clipPath1318"><path style="color:#000000;font-style:normal;font-variant:normal;font-weight:normal;font-stretch:normal;font-size:medium;line-height:normal;font-family:sans-serif;font-variant-ligatures:normal;font-variant-position:normal;font-variant-caps:normal;font-variant-numeric:normal;font-variant-alternates:normal;font-feature-settings:normal;text-indent:0;text-align:start;text-decoration:none;text-decoration-line:none;text-decoration-style:solid;text-decoration-color:#000000;letter-spacing:normal;word-spacing:normal;text-transform:none;writing-mode:lr-tb;direction:ltr;text-orientation:mixed;dominant-baseline:auto;baseline-shift:baseline;text-anchor:start;white-space:normal;shape-padding:0;clip-rule:nonzero;display:inline;overflow:visible;visibility:visible;opacity:1;isolation:auto;mix-blend-mode:normal;color-interpolation:sRGB;color-interpolation-filters:linearRGB;solid-color:#000000;solid-opacity:1;vector-effect:none;fill:#0000ff;fill-opacity:1;fill-rule:nonzero;stroke:none;stroke-width:2.265;stroke-linecap:round;stroke-linejoin:round;stroke-miterlimit:4;stroke-dasharray:none;stroke-dashoffset:0;stroke-opacity:1;color-rendering:auto;image-rendering:auto;shape-rendering:auto;text-rendering:auto;enable-background:accumulate" d="m 47.86943,112.50166 a 1.1326132,1.1326132 0 0 0 -1.132747,1.13275 v 4.29689 a 1.1326132,1.1326132 0 0 0 1.132747,1.13275 H 88.6411 a 1.1326132,1.1326132 0 0 0 1.132747,-1.13275 v -4.29689 A 1.1326132,1.1326132 0 0 0 88.6411,112.50166 Z m 94.68311,0.51935 a 1.1326132,1.1326132 0 0 0 -1.13275,1.13275 v 32.0337 a 1.1326132,1.1326132 0 0 0 1.13275,1.13274 h 7.50962 a 1.1326132,1.1326132 0 0 0 1.13274,-1.13274 v -32.0337 a 1.1326132,1.1326132 0 0 0 -1.13274,-1.13275 z m -47.814136,0.23409 a 1.1326132,1.1326132 0 0 0 -1.132747,1.13275 v 31.79961 a 1.1326132,1.1326132 0 0 0 1.132747,1.13274 h 40.771666 a 1.1326132,1.1326132 0 0 0 1.13275,-1.13274 v -22.77897 a 1.1326132,1.1326132 0 0 0 -1.13275,-1.13275 h -32.12879 v -7.88789 a 1.1326132,1.1326132 0 0 0 -1.13274,-1.13275 z m -45.736227,1.51205 H 87.50835 v 2.0314 H 49.002177 Z m 94.683103,0.51935 h 5.24413 v 29.76821 h -5.24413 z m -47.814128,0.2341 h 5.244638 v 7.88789 a 1.1326132,1.1326132 0 0 0 1.13275,1.13274 h 32.12879 v 20.51348 H 95.871152 Z m 108.409918,4.41213 a 1.1326132,1.1326132 0 0 0 -1.11776,1.13223 v 9.01805 a 1.1326132,1.1326132 0 0 0 0.50591,0.9431 l 4.96404,3.29954 -4.96404,3.29954 a 1.1326132,1.1326132 0 0 0 -0.50591,0.9431 v 9.01805 a 1.1326132,1.1326132 0 0 0 1.75958,0.94309 l 19.94917,-13.26069 a 1.1326132,1.1326132 0 0 0 0.50229,-0.85628 1.1326132,1.1326132 0 0 0 0.50075,0.85628 l 19.94917,13.26069 a 1.1326132,1.1326132 0 0 0 1.75958,-0.94309 v -9.01805 a 1.1326132,1.1326132 0 0 0 -0.50591,-0.9431 l -4.96404,-3.29954 4.96404,-3.29954 a 1.1326132,1.1326132 0 0 0 0.50591,-0.9431 v -9.01805 a 1.1326132,1.1326132 0 0 0 -1.75958,-0.94309 l -19.94917,13.26069 a 1.1326132,1.1326132 0 0 0 -0.5023,0.85627 1.1326132,1.1326132 0 0 0 -0.50074,-0.85627 l -19.94917,-13.26069 a 1.1326132,1.1326132 0 0 0 -0.64182,-0.18914 z M 0.87953289,122.27574 a 1.1326132,1.1326132 0 0 0 -1.13274741,1.13275 v 22.11079 a 1.1326132,1.1326132 0 0 0 1.13274741,1.13275 H 8.8614745 a 1.1326132,1.1326132 0 0 0 1.1327474,-1.13275 V 132.05085 H 21.693249 l -1.737361,1.12345 a 1.1326132,1.1326132 0 0 0 0,1.90169 l 20.817851,13.46119 a 1.1326132,1.1326132 0 0 0 1.747697,-0.95084 v -9.15448 a 1.1326132,1.1326132 0 0 0 -0.517797,-0.95085 l -4.924248,-3.18378 4.779036,-2.1792 a 1.1326132,1.1326132 0 0 0 0.663009,-1.03043 v -7.67911 a 1.1326132,1.1326132 0 0 0 -1.132747,-1.13275 z m 46.98989711,0 a 1.1326132,1.1326132 0 0 0 -1.132747,1.13275 v 22.77897 a 1.1326132,1.1326132 0 0 0 1.132747,1.13274 H 88.6411 a 1.1326132,1.1326132 0 0 0 1.132747,-1.13274 V 123.40849 A 1.1326132,1.1326132 0 0 0 88.6411,122.27574 Z m 109.52354,0 a 1.1326132,1.1326132 0 0 0 -1.13274,1.13275 v 22.77897 a 1.1326132,1.1326132 0 0 0 1.13274,1.13274 h 40.77168 a 1.1326132,1.1326132 0 0 0 1.13274,-1.13274 v -22.77897 a 1.1326132,1.1326132 0 0 0 -1.13274,-1.13275 z m 48.03583,0.90175 16.77055,11.14816 -16.77055,11.14816 v -6.29833 l 5.87716,-3.90674 a 1.1326132,1.1326132 0 0 0 0,-1.88618 l -5.87716,-3.90674 z m 39.88956,0 v 6.29833 l -5.87716,3.90674 a 1.1326132,1.1326132 0 0 0 0,1.88618 l 5.87716,3.90674 v 6.29833 L 228.5478,134.32565 Z M 2.0122803,124.54123 H 40.255941 v 5.81825 l -5.998083,2.73524 a 1.1326132,1.1326132 0 0 0 -0.145211,1.98127 l 6.143294,3.97237 v 6.45697 l -17.59996,-11.38018 3.489193,-2.2562 a 1.1326132,1.1326132 0 0 0 -0.61495,-2.08359 H 8.8614745 a 1.1326132,1.1326132 0 0 0 -1.1327474,1.13274 v 13.46843 H 2.0122803 Z m 46.9898967,0 H 87.50835 v 20.51348 H 49.002177 Z m 109.523543,0 h 38.50618 v 20.51348 h -38.50618 z m -103.146672,5.24413 a 1.1326132,1.1326132 0 0 0 -1.132747,1.13274 v 7.75974 a 1.1326132,1.1326132 0 0 0 1.132747,1.13275 h 25.279594 a 1.1326132,1.1326132 0 0 0 1.132747,-1.13275 v -7.75974 a 1.1326132,1.1326132 0 0 0 -1.132747,-1.13274 z m 46.869492,0 a 1.1326132,1.1326132 0 0 0 -1.13275,1.13274 v 7.75974 a 1.1326132,1.1326132 0 0 0 1.13275,1.13275 h 25.27907 a 1.1326132,1.1326132 0 0 0 1.13275,-1.13275 v -7.75974 a 1.1326132,1.1326132 0 0 0 -1.13275,-1.13274 z m 62.65457,0 a 1.1326132,1.1326132 0 0 0 -1.13275,1.13274 v 7.75974 a 1.1326132,1.1326132 0 0 0 1.13275,1.13275 h 25.27959 a 1.1326132,1.1326132 0 0 0 1.13275,-1.13275 v -7.75974 a 1.1326132,1.1326132 0 0 0 -1.13275,-1.13274 z m -108.391314,2.26549 h 23.014099 v 5.49424 H 56.511796 Z m 46.869484,0 h 23.01359 v 5.49424 h -23.01359 z m 62.65458,0 h 23.0141 v 5.49424 h -23.0141 z" id="path1320"/></clipPath></defs><g id="g11" transform="matrix(18.32192,0,0,18.32192,-0.11594387,-367.92484)" style="stroke-width:0.0545794"><path id="path9" style="display:inline;stroke-width:0.0545794" class="a" d="m 160.17281,163.40984 c -5.164,-0.20443 -34.28124,3.22071 -65.921873,6.97071 -33.75,4 -60.471093,5.66 -60.871093,8 -0.76,4.37 3.871093,36.61914 5.621093,60.86914 0.87,12 3.75,56.25 3.75,56.25 0,0 18.810001,4 26.5,6 8.25,2.12 30,8.62109 30,8.62109 0,0 -4.499999,-13.37109 -8,-23.37109 -3.5,-10 -12,-34.12891 -12,-34.12891 l 4.869141,-0.74023 c 0,0 11.700859,25.11914 14.130859,29.86914 11.130003,21.87 16.630003,39.75 18.500003,40.75 1.29,0.69 13.49914,-3.37891 36.36914,-6.37891 14.84058,-1.98512 29.78801,-3.06719 44.75976,-3.24023 -6.88,-5.38 -30.38,-24 -45.5,-36 -10.16,-8.06 -33.6289,-27.38086 -33.6289,-27.38086 0,0 11.27669,0.32075 19.07406,0.36131 7.26712,0.0378 19.92352,0.0989 24.0942,0 5.88299,-0.1395 13.77077,-8.8853 20.59205,-15.63556 1.04695,-0.85322 1.64974,-2.53704 1.2855,-3.83815 -3.07368,-9.76865 -10.54581,-32.26647 -10.54581,-32.26647 0,0 -10.3711,-33.87109 -12.3711,-34.62109 -0.125,-0.0469 -0.36276,-0.0762 -0.70703,-0.0898 z m -77.357419,39.69727 c 3.618235,-0.0134 9.826171,0.7168 11.935546,0.89258 3,0.25 13.270003,1.31109 14.000003,2.62109 0.63,1.13 -0.13,7.99891 -0.75,8.87891 -0.62,0.88 -6.25,1.50086 -13.250003,2.88086 -5.869999,1.15 -11.870859,3.36914 -12.630859,2.61914 -0.76,-0.75 -2.37,-15.99891 -2,-17.37891 0.085,-0.31 0.854688,-0.45797 2.007813,-0.5 0.216211,-0.008 0.446284,-0.0128 0.6875,-0.0137 z" transform="translate(-33.29,-143.32)" sodipodi:nodetypes="sscccccsccccccccsscccscscscscsccsc"/><path style="fill:#ffffff;stroke-width:0.0545794" d="m 51.88,227.38 c 0.5,6.12 6,64.11 7.12,65 1.12,0.89 27.25,5.37 28,4.24 0.75,-1.13 -4.12,-14.5 -6.62,-23 -2.5,-8.5 -8.26,-24 -7.38,-24.87 0.88,-0.87 13.5,-2.25 14.25,-1.63 0.75,0.62 12,23.38 16.75,32.88 4.75,9.5 16.75,30.5 16.75,30.5 0,0 8.44,-2 20,-3.62 12.37,-1.76 24.75,-2.38 24.75,-2.38 0,0 -14.12,-15.25 -19.75,-20.62 -4.7,-4.5 -33.25,-30.63 -35.63,-33 -1,-1 -6.5,-6 -5.5,-6.63 2.33,-1.45 54.26,-0.25 55.76,-0.87 1.5,-0.62 11.5,-9.38 11.87,-12.26 0.37,-2.88 -16.63,-58.74 -19.13,-60.5 -2.5,-1.76 -41.74,2.5 -56.37,4.13 -14.63,1.63 -47.43,6.18 -48.87,7.63 -0.63,0.62 3.5,38.87 4,45 z m 22.5,-29.26 c 0.75,-1.5 39.74,1.88 40.87,4.13 1.13,2.25 0.75,18.75 0.25,19.87 -0.5,1.12 -9.75,1.63 -19.75,3.5 -10,1.87 -17.87,3.76 -18.5,3.26 -0.63,-0.5 -3.37,-29.76 -2.87,-30.76 z" transform="translate(-33.29,-143.32)" id="path3" sodipodi:nodetypes="cssssssccccccssssccssssss"/></g></svg>