<?xml version="1.0" encoding="UTF-8" standalone="no"?>
<!-- Created with Inkscape (http://www.inkscape.org/) -->

<svg
   width="188.50867mm"
   height="33.279163mm"
   viewBox="0 0 188.50867 33.279163"
   version="1.1"
   id="svg1"
   xmlns="http://www.w3.org/2000/svg"
   xmlns:svg="http://www.w3.org/2000/svg">
  <defs
     id="defs1" />
  <g
     id="layer1"
     transform="translate(-7.9333446,-29.925571)">
    <path
       style="font-weight:600;font-size:46.6678px;font-family:Torus;-inkscape-font-specification:'Torus, Semi-Bold';font-feature-settings:'ss01';fill:#f5bde6;fill-opacity:1;stroke-width:23.6227;stroke-linecap:round"
       d="m 140.25611,57.791268 h -9.33356 l 10.8736,-13.813669 c 0.84002,-1.07336 0.93336,-2.426726 0.14,-3.360082 -0.70001,-0.84002 -1.26003,-1.120027 -2.52006,-1.120027 h -12.6003 c -1.68004,0 -2.84674,0.980024 -2.84674,2.613397 0,1.586705 1.1667,2.426725 2.84674,2.426725 h 8.30686 l -11.0136,13.626998 c -0.46667,0.65335 -0.70001,1.260031 -0.70001,2.100051 0,1.633373 1.21336,2.566729 2.8934,2.566729 h 13.95367 c 1.68004,0 2.89341,-0.886688 2.89341,-2.520061 0,-1.633373 -1.21337,-2.520061 -2.89341,-2.520061 z"
       id="path15" />
    <path
       style="font-weight:600;font-size:46.6678px;font-family:Torus;-inkscape-font-specification:'Torus, Semi-Bold';font-feature-settings:'ss01';fill:#f5bde6;fill-opacity:1;stroke-width:23.6227;stroke-linecap:round"
       d="m 118.46226,39.264151 c -0.42001,-0.09334 -0.93336,-0.186671 -1.58671,-0.186671 -2.28672,0 -4.94678,1.353366 -6.11348,3.640088 h -0.23334 v -0.560013 c -0.0467,-1.633373 -1.12002,-2.706733 -2.66006,-2.706733 -1.68004,0 -2.7534,1.213363 -2.7534,2.893404 v 17.593761 c 0,1.680041 1.07336,2.893403 2.7534,2.893403 1.68004,0 2.7534,-1.213362 2.7534,-2.893403 v -6.16015 c 0,-6.673496 2.52006,-9.473564 5.69347,-9.426896 0.42001,0 0.84002,0.04667 1.21336,0.09334 1.68004,0.326674 2.89341,-0.466678 3.17341,-2.053383 0.23334,-1.680041 -0.60668,-2.800068 -2.24005,-3.126743 z"
       id="path14" />
    <path
       style="font-weight:600;font-size:46.6678px;font-family:Torus;-inkscape-font-specification:'Torus, Semi-Bold';font-feature-settings:'ss01';fill:#f5bde6;fill-opacity:1;stroke-width:23.6227;stroke-linecap:round"
       d="m 97.135066,39.49749 c -1.633374,0 -2.753401,1.213363 -2.753401,2.846736 v 9.940241 c 0,4.153435 -2.33339,5.786808 -5.460132,5.786808 -3.173411,0 -5.506801,-1.633373 -5.506801,-5.786808 v -9.940241 c 0,-1.633373 -1.120027,-2.846736 -2.7534,-2.846736 -1.680041,0 -2.7534,1.213363 -2.7534,2.846736 V 52.65781 c 0,7.606851 5.273461,10.546923 11.013601,10.546923 5.693471,0 10.966933,-2.940072 10.966933,-10.546923 V 42.344226 c 0,-1.633373 -1.07336,-2.846736 -2.7534,-2.846736 z"
       id="path13" />
    <path
       style="font-weight:600;font-size:46.6678px;font-family:Torus;-inkscape-font-specification:'Torus, Semi-Bold';font-feature-settings:'ss01';fill:#f5bde6;fill-opacity:1;stroke-width:23.6227;stroke-linecap:round"
       d="m 71.467755,39.49749 h -8.543387 c -3.890978,0 -3.801686,5.273461 0,5.273461 h 8.543387 c 1.633373,0 2.800068,-0.933356 2.800068,-2.660064 0,-1.726709 -1.166695,-2.613397 -2.800068,-2.613397 z"
       id="path12" />
    <path
       style="font-weight:600;font-size:46.6678px;font-family:Torus;-inkscape-font-specification:'Torus, Semi-Bold';font-feature-settings:'ss01';fill:#f5bde6;fill-opacity:1;stroke-width:23.6227;stroke-linecap:round"
       d="M 140.27445,29.977259 H 69.414372 c -6.766831,0 -10.40692,4.01343 -10.40692,10.686926 v 19.273802 c 0,1.680041 1.07336,2.893403 2.7534,2.893403 1.633373,0 2.706733,-1.213362 2.706733,-2.893403 V 40.710853 c 0,-3.546753 1.400034,-5.693472 4.993455,-5.693472 h 70.81341 c 1.5867,0 2.66006,-0.933356 2.66006,-2.520061 0,-1.633373 -1.07336,-2.520061 -2.66006,-2.520061 z"
       id="path10" />
    <path
       style="font-weight:600;font-size:46.6678px;font-family:Torus;-inkscape-font-specification:'Torus, Semi-Bold';font-feature-settings:'ss01';fill:#f5bde6;fill-opacity:1;stroke-width:23.623;stroke-linecap:round;stroke-dasharray:none"
       d="m 10.593405,29.925586 21.118412,0.05168 c 6.76681,0.01656 10.40692,4.01343 10.40692,10.686925 v 19.2738 c 0,1.68004 -1.07336,2.8934 -2.7534,2.8934 -1.63337,0 -2.70673,-1.21336 -2.70673,-2.8934 V 40.710855 c 0,-3.546753 -1.400051,-5.684659 -4.99346,-5.693471 l -21.071742,-0.05168 c -1.5866951,-0.0039 -2.6600599,-0.933356 -2.6600599,-2.520061 0,-1.633373 1.0733648,-2.523944 2.6600599,-2.520061 z"
       id="path10-4" />
    <path
       style="font-weight:600;font-size:46.6678px;font-family:Torus;-inkscape-font-specification:'Torus, Semi-Bold';font-feature-settings:'ss01';fill:#f5bde6;fill-opacity:1;stroke-width:23.6227;stroke-linecap:round"
       d="m 50.560577,39.49749 c -1.680041,0 -2.7534,1.213363 -2.7534,2.846736 v 17.593761 c 0,1.680041 1.073359,2.893403 2.7534,2.893403 1.633373,0 2.706733,-1.213362 2.706733,-2.893403 V 42.344226 c 0,-1.633373 -1.07336,-2.846736 -2.706733,-2.846736 z"
       id="path9" />
    <path
       style="font-weight:600;font-size:46.6678px;font-family:Torus;-inkscape-font-specification:'Torus, Semi-Bold';font-feature-settings:'ss01';fill:#f5bde6;fill-opacity:1;stroke-width:23.6227;stroke-linecap:round"
       d="m 50.56059,36.510751 c 1.866712,0 3.220078,-1.400034 3.220078,-3.266746 0,-1.866712 -1.353366,-3.266746 -3.220078,-3.266746 -1.91338,0 -3.266746,1.400034 -3.266746,3.266746 0,1.866712 1.353366,3.266746 3.266746,3.266746 z"
       id="path8" />
    <path
       id="path5"
       style="font-weight:600;font-size:46.6678px;font-family:Torus;-inkscape-font-specification:'Torus, Semi-Bold';font-feature-settings:'ss01';fill:#f5bde6;fill-opacity:1;stroke-width:23.6227;stroke-linecap:round"
       d="m 20.113641,57.697929 c -4.106766,0 -6.673494,-2.98674 -6.673494,-6.906835 0,-3.920095 2.566728,-6.953502 6.673494,-6.953502 4.106767,0 6.673496,3.033407 6.673496,6.953502 0,3.920095 -2.566729,6.906835 -6.673496,6.906835 z m 0,5.133458 c 7.093506,0 12.180296,-5.133458 12.180296,-12.040293 0,-6.953502 -5.08679,-12.040292 -12.180296,-12.040292 -7.093506,0 -12.1802959,5.08679 -12.1802959,12.040292 0,6.906835 5.0867899,12.040293 12.1802959,12.040293 z" />
    <path
       style="font-weight:600;font-size:46.6678px;font-family:Torus;-inkscape-font-specification:'Torus, Semi-Bold';font-feature-settings:'ss01';fill:#f5bde6;fill-opacity:1;stroke-width:23.6227;stroke-linecap:round"
       d="m 20.113641,53.124484 c 1.400034,0 2.380058,-0.980024 2.380058,-2.33339 0,-1.353366 -0.980024,-2.380058 -2.380058,-2.380058 -1.400034,0 -2.33339,1.026692 -2.33339,2.380058 0,1.353366 0.933356,2.33339 2.33339,2.33339 z"
       id="text12-3" />
    <path
       style="font-weight:600;font-size:24.1923px;font-family:Torus;-inkscape-font-specification:'Torus, Semi-Bold';fill:#f5bde6;stroke-width:12.2458;stroke-linecap:round"
       d="m 192.18418,50.348178 c -1.59669,0 -2.87888,0.580615 -3.67723,1.403154 -0.72577,-0.895116 -1.83861,-1.403154 -2.97565,-1.403154 -1.20962,0 -2.46762,0.749961 -2.90308,1.427346 h -0.12096 v -0.02419 c -0.0726,-0.701577 -0.60481,-1.233808 -1.37896,-1.233808 -0.87092,0 -1.42735,0.653192 -1.42735,1.524115 v 9.096305 c 0,0.870923 0.55643,1.499923 1.42735,1.499923 0.87092,0 1.42734,-0.629 1.42734,-1.499923 v -6.338382 c 0,-1.258 1.13704,-1.887 2.2257,-1.887 1.06446,0 1.8628,0.556423 1.8628,1.911192 v 6.31419 c 0,0.870923 0.55643,1.499923 1.42735,1.499923 0.87092,0 1.42734,-0.629 1.42734,-1.499923 V 54.6786 c 0,-1.258 1.13704,-1.766038 2.2257,-1.766038 1.11284,0 1.8628,0.556423 1.8628,1.911192 v 6.31419 c 0,0.870923 0.55643,1.499923 1.42735,1.499923 0.87092,0 1.42734,-0.629 1.42734,-1.499923 v -6.531921 c 0,-2.685345 -1.93538,-4.257845 -4.25784,-4.257845 z"
       id="path16" />
    <path
       id="path6"
       style="font-weight:600;font-size:24.1923px;font-family:Torus;-inkscape-font-specification:'Torus, Semi-Bold';fill:#f5bde6;stroke-width:12.2458;stroke-linecap:round"
       d="m 171.11268,60.170252 c -2.12892,0 -3.4595,-1.548307 -3.4595,-3.58046 0,-2.032153 1.33058,-3.604653 3.4595,-3.604653 2.12892,0 3.4595,1.5725 3.4595,3.604653 0,2.032153 -1.33058,3.58046 -3.4595,3.58046 z m 0,2.661153 c 3.67723,0 6.31419,-2.661153 6.31419,-6.241613 0,-3.604653 -2.63696,-6.241614 -6.31419,-6.241614 -3.67723,0 -6.31419,2.636961 -6.31419,6.241614 0,3.58046 2.63696,6.241613 6.31419,6.241613 z" />
    <path
       style="font-weight:600;font-size:24.1923px;font-family:Torus;-inkscape-font-specification:'Torus, Semi-Bold';fill:#f5bde6;stroke-width:12.2458;stroke-linecap:round"
       d="m 160.58901,54.073792 c 0.55643,0.580616 1.18543,0.556423 1.83862,-0.04838 0.60481,-0.604808 0.74996,-1.330577 0.14515,-1.935384 -1.08865,-1.088654 -2.58857,-1.741846 -4.45138,-1.741846 -3.67723,0 -6.31419,2.636961 -6.31419,6.241614 0,3.58046 2.63696,6.241613 6.31419,6.241613 1.83861,0 3.33854,-0.653192 4.45138,-1.766038 0.6532,-0.628999 0.55643,-1.378961 -0.0242,-1.983768 -0.629,-0.604808 -1.33058,-0.604808 -1.93538,0 -0.6532,0.653192 -1.42735,1.088653 -2.49181,1.088653 -2.05635,0 -3.4595,-1.620884 -3.4595,-3.58046 0,-1.959577 1.40315,-3.604653 3.4595,-3.604653 1.04027,0 1.81442,0.435461 2.46761,1.088653 z"
       id="path4" />
    <path
       style="font-weight:600;font-size:24.1923px;font-family:Torus;-inkscape-font-specification:'Torus, Semi-Bold';fill:#f5bde6;stroke-width:12.2458;stroke-linecap:round"
       d="m 148.3719,62.637867 c 0.96769,0 1.71765,-0.774154 1.71765,-1.717653 0,-0.9435 -0.74996,-1.717654 -1.71765,-1.717654 -0.9435,0 -1.69346,0.774154 -1.69346,1.717654 0,0.943499 0.74996,1.717653 1.69346,1.717653 z"
       id="text12-3-4" />
  </g>
</svg>
